<?xml version="1.0" encoding="UTF-8" standalone="no"?>
<svg
   xmlns:dc="http://purl.org/dc/elements/1.1/"
   xmlns:cc="http://creativecommons.org/ns#"
   xmlns:rdf="http://www.w3.org/1999/02/22-rdf-syntax-ns#"
   xmlns:svg="http://www.w3.org/2000/svg"
   xmlns="http://www.w3.org/2000/svg"
   xmlns:sodipodi="http://sodipodi.sourceforge.net/DTD/sodipodi-0.dtd"
   xmlns:inkscape="http://www.inkscape.org/namespaces/inkscape"
   width="1500pt"
   height="250pt"
   viewBox="0 0 1500 250"
   version="1.1"
   id="svg40"
   sodipodi:docname="logo.svg"
   inkscape:version="0.92.1 r15371">
  <metadata
     id="metadata46">
    <rdf:RDF>
      <cc:Work
         rdf:about="">
        <dc:format>image/svg+xml</dc:format>
        <dc:type
           rdf:resource="http://purl.org/dc/dcmitype/StillImage" />
      </cc:Work>
    </rdf:RDF>
  </metadata>
  <defs
     id="defs44" />
  <sodipodi:namedview
     pagecolor="#ffffff"
     bordercolor="#666666"
     borderopacity="1"
     objecttolerance="10"
     gridtolerance="10"
     guidetolerance="10"
     inkscape:pageopacity="0"
     inkscape:pageshadow="2"
     inkscape:window-width="1920"
     inkscape:window-height="1021"
     id="namedview42"
     showgrid="false"
     inkscape:zoom="0.55012908"
     inkscape:cx="1203.1641"
     inkscape:cy="94.927115"
     inkscape:window-x="0"
     inkscape:window-y="0"
     inkscape:window-maximized="1"
     inkscape:current-layer="text4543" />
  <g
     id="#ffffffff" />
  <path
     style="opacity:1;fill:#000000"
     inkscape:connector-curvature="0"
     id="path3"
     d="m 809.44,55.64 c 7.28,-2.73 16.47,2.41 16.92,10.43 1.04,7.09 -5.47,13.46 -12.41,13.28 -6.77,0.47 -13.14,-5.56 -12.64,-12.4 0.04,-4.98 3.35,-9.78 8.13,-11.31 z" />
  <path
     style="opacity:1;fill:#000000"
     inkscape:connector-curvature="0"
     id="path5"
     d="m 987.52,55.77 c 6.89,-2.79 15.83,1.56 17.03,9.1 1.56,6.4 -3.22,13.12 -9.61,14.18 -6.11,1.53 -13.11,-2.15 -14.79,-8.32 -1.82,-5.9 1.49,-12.89 7.37,-14.96 z" />
  <path
     style="opacity:1;fill:#000000"
     inkscape:connector-curvature="0"
     id="path7"
     d="m 654.68,62.38 c 10.48,-0.02 20.96,0 31.44,-0.01 0.01,28.16 0,56.31 0,84.46 0.87,0.85 1.74,1.69 2.62,2.55 2.94,-0.01 5.88,-0.01 8.82,0 0,3.94 0.01,7.87 -0.01,11.81 -7.97,-0.01 -15.95,0.01 -23.92,-0.01 -0.01,-3.76 -0.04,-7.52 0.04,-11.29 -4.4,6.06 -10.84,10.62 -18.1,12.48 -11.63,2.93 -24.75,-0.13 -33.48,-8.46 -13.11,-12.13 -14.83,-34.02 -4.57,-48.45 7.5,-10.92 21.48,-16.53 34.48,-14.51 8.64,1.18 16.58,6.13 21.66,13.19 -0.1,-9.14 0.03,-18.28 -0.07,-27.42 -0.91,-0.84 -1.8,-1.69 -2.69,-2.54 -5.41,0.01 -10.81,0.01 -16.21,0.01 -0.01,-3.94 0,-7.87 -0.01,-11.81 M 642.2,103.2 c -6.48,1.37 -12.1,5.95 -14.82,11.97 -4.35,9.66 -3.21,22.23 4.37,29.99 5.96,6.09 15.34,7.47 23.36,5.46 8.21,-1.93 14.62,-8.42 18.42,-15.7 0.16,-5.26 0.16,-10.55 0,-15.81 -1.99,-3.97 -4.89,-7.51 -8.23,-10.44 -6.24,-5.42 -15.12,-7.19 -23.1,-5.47 z" />
  <path
     style="opacity:1;fill:#000000"
     inkscape:connector-curvature="0"
     id="path9"
     d="m 60.72,91.77 c 11.76,-3.14 25.16,0 33.93,8.54 12.61,11.93 14.46,32.91 5.03,47.28 -7.05,11.1 -20.68,17.21 -33.65,15.66 -9.16,-0.86 -17.68,-5.93 -23.1,-13.31 0.01,9.06 0.03,18.11 -0.01,27.17 1.24,0.99 2.19,2.89 4.04,2.58 4.97,0.03 9.94,-0.02 14.91,-0.01 0.01,3.94 0.01,7.88 0,11.82 -14.28,0 -28.57,-0.01 -42.86,0.01 -0.02,-3.94 -0.01,-7.88 -0.01,-11.82 2.91,-0.01 5.82,-0.01 8.72,0.01 0.91,-0.87 1.81,-1.74 2.72,-2.61 -0.02,-23.28 0.01,-46.55 -0.01,-69.83 -0.89,-0.88 -1.77,-1.75 -2.65,-2.62 -2.92,-0.01 -5.85,-0.02 -8.77,0 -0.02,-3.95 -0.01,-7.89 0,-11.83 7.97,0 15.95,0 23.93,0.01 0,3.75 0.01,7.5 -0.01,11.26 4.41,-5.87 10.67,-10.39 17.79,-12.31 m -0.25,11.9 c -7.74,2.2 -13.76,8.4 -17.44,15.36 -0.16,5.33 -0.17,10.68 0.01,16.01 2.54,4.81 6.17,9.16 10.71,12.22 9.51,6.22 23.82,5.88 31.76,-2.8 9.09,-10.12 8.45,-27.93 -2.06,-36.84 -6.29,-5.26 -15.28,-6.1 -22.98,-3.95 z" />
  <path
     style="opacity:1;fill:#000000"
     inkscape:connector-curvature="0"
     id="path11"
     d="m 183.85,91.4 c 7.09,-1.64 15.12,-0.95 21.23,3.27 7.71,5.29 10.28,17.26 4.49,24.85 -3.93,5.38 -12.32,6.32 -17.6,2.46 -4.21,-3.29 -4.44,-10.84 0.12,-13.94 2.37,-1.7 5.41,-1.85 8.2,-1.46 -1.34,-1.61 -2.63,-3.51 -4.76,-4.1 -6.07,-1.89 -12.6,0.21 -17.77,3.5 -7.83,5.02 -14.04,12.07 -20.13,18.99 -0.01,6.46 0.01,12.92 -0.02,19.38 1.71,1.68 3.42,3.36 5.15,5.02 9.29,0 18.57,0 27.87,0 0,3.94 0,7.88 -0.01,11.83 -21.42,-0.02 -42.83,-0.01 -64.24,-0.01 -0.01,-3.94 -0.01,-7.88 0,-11.82 4.52,0 9.05,0 13.58,0 1.69,-1.73 3.69,-3.21 5.1,-5.19 0.17,-11.48 -0.02,-22.96 0.09,-34.44 -1.72,-1.73 -3.46,-3.43 -5.22,-5.11 -4.52,-0.01 -9.04,0 -13.56,-0.01 0,-3.93 -0.01,-7.87 0.01,-11.81 10.42,0.01 20.83,0 31.24,0 0.01,5.94 0.01,11.88 0,17.81 6.94,-8.4 15.41,-16.42 26.23,-19.22 z" />
  <path
     style="opacity:1;fill:#000000"
     inkscape:connector-curvature="0"
     id="path13"
     d="m 238.13,105.25 c 12.15,-15.57 36.21,-18.96 53.04,-9.37 12.26,7.1 18.4,21.61 18.35,35.37 -21.72,0.02 -43.43,-0.04 -65.14,0.03 1.45,8.13 7.27,15.24 15.06,18.05 13.68,5 29.41,0.96 40.41,-8.18 2.33,2.93 4.69,5.84 7.02,8.77 -10.24,8.53 -23.36,14.16 -36.86,13.49 -12.22,-0.24 -24.8,-5.3 -32.28,-15.26 -9.47,-12.25 -9.23,-30.81 0.4,-42.9 m 18.54,0.48 c -6,3.1 -10.35,8.91 -11.94,15.44 16.44,0.02 32.89,0.02 49.33,0 -1.47,-5.49 -4.45,-10.69 -9.09,-14.09 -8.06,-6.04 -19.59,-5.95 -28.3,-1.35 z" />
  <path
     style="opacity:1;fill:#000000"
     inkscape:connector-curvature="0"
     id="path15"
     d="m 335.11,99.13 c 4.89,-5.69 12.56,-8.18 19.87,-8.51 9.93,-0.35 20.44,2.25 27.91,9.09 0.73,-0.23 2.2,-0.7 2.93,-0.94 -0.01,-1.98 -0.01,-3.97 -0.01,-5.95 3.93,-0.01 7.87,-0.01 11.8,-0.01 0.03,8.08 0.01,16.16 0.02,24.25 -3.22,0 -6.44,0.01 -9.65,-0.01 -6.3,-8.65 -16.41,-14.47 -27.06,-15.52 -4.83,-0.24 -10.23,0.17 -14.1,3.37 -2.49,1.96 -3.12,5.92 -1.07,8.41 2.16,2.5 5.58,3.25 8.63,4.09 10.26,2.27 20.6,4.17 30.87,6.46 5.87,1.39 12.18,3.89 15.36,9.37 4.02,7.46 2.4,17.68 -4.06,23.28 -5.32,4.72 -12.57,6.52 -19.52,6.87 -11.68,0.65 -23.98,-2.67 -32.63,-10.83 -0.95,0.63 -1.89,1.26 -2.84,1.89 0,2.25 0,4.5 0,6.75 -3.9,0 -7.79,0 -11.68,0 -0.01,-8.71 -0.01,-17.42 0,-26.13 3.6,0 7.21,-0.01 10.82,0.01 7,8.8 16.97,15.78 28.35,17.07 5.51,0.55 11.6,0.53 16.44,-2.53 3.29,-2.02 4.94,-6.75 2.89,-10.17 -1.91,-2.66 -5.36,-3.37 -8.33,-4.14 -9.24,-1.93 -18.53,-3.59 -27.77,-5.5 -5.9,-1.36 -12.03,-3.25 -16.5,-7.54 -6.23,-5.94 -6.27,-16.75 -0.67,-23.13 z" />
  <path
     style="opacity:1;fill:#000000"
     inkscape:connector-curvature="0"
     id="path17"
     d="m 428,99.03 c 4.97,-5.71 12.72,-8.15 20.09,-8.42 9.85,-0.28 20.21,2.35 27.63,9.12 0.71,-0.25 2.14,-0.73 2.85,-0.98 -0.01,-1.98 -0.01,-3.96 -0.01,-5.94 3.96,0 7.92,0 11.88,0.01 0,8.08 0,16.16 -0.01,24.24 -3.2,0 -6.4,0 -9.59,0.03 -6.32,-8.58 -16.31,-14.44 -26.93,-15.54 -4.81,-0.3 -10.11,0.13 -14.07,3.14 -2.73,1.97 -3.46,6.27 -1.13,8.82 2.38,2.51 5.96,3.23 9.18,4.06 10,2.18 20.07,4.05 30.06,6.28 5.76,1.35 11.91,3.73 15.19,8.97 3.42,5.77 3.12,13.41 -0.12,19.19 -3.69,6.33 -10.85,9.64 -17.83,10.79 -13.27,2.13 -27.99,-0.81 -37.96,-10.24 -0.97,0.62 -1.94,1.25 -2.91,1.88 -0.01,2.24 -0.01,4.49 -0.01,6.74 -3.9,0.01 -7.79,0.01 -11.68,0.01 -0.01,-8.71 -0.01,-17.42 0,-26.13 3.59,0 7.19,0.01 10.79,-0.02 6.49,7.99 15.24,14.63 25.52,16.63 6.07,1.1 12.74,1.35 18.39,-1.49 3.56,-1.71 5.72,-6.12 4.27,-9.91 -1.44,-3.13 -5.13,-4.01 -8.16,-4.82 -9.59,-2.06 -19.26,-3.73 -28.85,-5.76 -5.92,-1.4 -12.08,-3.39 -16.44,-7.85 -5.85,-6.06 -5.72,-16.6 -0.15,-22.81 z" />
  <path
     style="opacity:1;fill:#000000"
     inkscape:connector-curvature="0"
     id="path19"
     d="m 520.91,104.9 c 12.11,-15.12 35.54,-18.44 52.22,-9.33 12.59,6.98 18.96,21.71 18.88,35.68 -21.7,0 -43.4,-0.01 -65.11,0.01 1.41,8.3 7.49,15.49 15.46,18.22 13.59,4.76 29.1,0.73 39.98,-8.32 2.35,2.91 4.69,5.83 7.04,8.75 -10.11,8.42 -23.01,14.04 -36.34,13.51 -12.46,-0.11 -25.34,-5.22 -32.91,-15.41 -9.46,-12.36 -9.07,-31.07 0.78,-43.11 m 17.43,1.3 c -5.6,3.17 -9.57,8.76 -11.1,14.97 16.44,0.02 32.88,0.03 49.32,0 -1.59,-6.08 -5.16,-11.76 -10.55,-15.12 -8.28,-5.14 -19.36,-4.64 -27.67,0.15 z" />
  <path
     style="opacity:1;fill:#000000"
     inkscape:connector-curvature="0"
     id="path21"
     d="m 1047.8,106.82 c 11.96,-15.69 34.74,-19.89 52.68,-13.19 7.73,2.9 15.14,8.93 16.69,17.43 1.41,5.9 -1.52,12.72 -7.26,15.06 -6.58,3.13 -15.51,-1.53 -15.85,-9.02 -0.63,-4.28 2.59,-7.78 6.34,-9.26 -11.62,-8.57 -29.99,-7.03 -39.54,4.01 -6.75,7.84 -7.16,20.16 -1.46,28.69 4.26,6.49 11.97,9.9 19.54,10.44 11.57,1.3 22.81,-3.6 31.75,-10.63 2.49,3.18 4.99,6.37 7.5,9.56 -8.89,7.25 -19.72,12.45 -31.26,13.36 -13.65,1.19 -28.48,-2.92 -37.65,-13.57 -10.4,-11.63 -11.23,-30.6 -1.48,-42.88 z" />
  <path
     style="opacity:1;fill:#000000"
     inkscape:connector-curvature="0"
     id="path23"
     d="m 1144.77,105.85 c 11.94,-16.03 36.34,-19.67 53.37,-10.04 12.34,7.07 18.5,21.63 18.47,35.43 -21.72,0.05 -43.43,-0.05 -65.14,0.05 1.47,8.23 7.44,15.4 15.36,18.14 13.61,4.84 29.19,0.81 40.11,-8.27 2.35,2.91 4.67,5.84 7.03,8.75 -8.29,6.83 -18.28,11.92 -29.04,13.18 -13.72,1.65 -28.82,-2.14 -38.26,-12.7 -11.04,-11.94 -11.72,-31.68 -1.9,-44.54 m 17.05,1.04 c -5.05,3.23 -8.55,8.5 -9.99,14.28 16.44,0.03 32.88,0.02 49.32,0 -1.67,-6.46 -5.63,-12.48 -11.57,-15.72 -8.57,-4.68 -19.65,-3.8 -27.76,1.44 z" />
  <path
     style="opacity:1;fill:#000000"
     inkscape:connector-curvature="0"
     id="path25"
     d="m 1284.83,94.72 c 8.27,-4.8 19.05,-5.73 27.65,-1.21 9.86,4.94 13.12,20.27 4.57,27.88 -3.96,3.47 -10.09,3.76 -14.65,1.38 -5.23,-2.74 -6.05,-11.26 -1.13,-14.68 2.37,-1.76 5.44,-1.85 8.27,-1.53 -1.51,-1.89 -3.17,-3.93 -5.68,-4.36 -8.12,-1.83 -15.99,2.5 -22.02,7.55 -5.51,4.54 -10.28,9.87 -14.96,15.23 0.05,6.39 -0.11,12.78 0.06,19.17 1.36,2.01 3.39,3.47 5.07,5.22 9.29,0 18.57,0 27.86,0 0,3.94 0,7.87 0.01,11.81 -21.42,0.01 -42.84,0 -64.25,0.01 -0.02,-3.94 -0.01,-7.87 -0.01,-11.81 4.53,-0.01 9.08,-0.01 13.62,0 1.72,-1.67 3.43,-3.34 5.14,-5.02 -0.01,-11.55 -0.03,-23.11 0.01,-34.66 -1.73,-1.71 -3.46,-3.4 -5.21,-5.08 -4.52,0.01 -9.04,0.01 -13.56,0.01 0,-3.94 -0.01,-7.88 0.01,-11.82 10.41,0 20.83,0 31.25,0.01 0.01,5.79 -0.05,11.59 0.03,17.38 5.44,-5.72 10.85,-11.71 17.92,-15.48 z" />
  <path
     style="opacity:1;fill:#000000"
     inkscape:connector-curvature="0"
     id="path27"
     d="m 771.75,92.81 c 17.13,0 34.25,0 51.37,0 -0.02,21.74 0.06,43.48 -0.04,65.21 -0.03,10.61 -3.83,21.86 -12.61,28.37 -13.34,9.77 -33.5,8.82 -45.96,-2.02 -6.22,-5.36 -10.26,-14.05 -8.06,-22.26 1.53,-5.98 7.38,-10.67 13.65,-10.13 5.56,-0.03 11.2,4.21 11.35,10.04 0.43,5.63 -4.6,10.23 -9.97,10.63 4.76,10.13 18.55,11.94 27.85,7.53 4.92,-2.34 8.29,-7.13 9.75,-12.28 1.78,-5.77 1.53,-11.88 1.54,-17.84 -0.01,-13.47 0.02,-26.95 -0.01,-40.42 -1.76,-1.71 -3.52,-3.4 -5.32,-5.06 -11.18,0.1 -22.36,0.03 -33.54,0.04 0,-3.94 -0.01,-7.87 0,-11.81 z" />
  <path
     style="opacity:1;fill:#000000"
     inkscape:connector-curvature="0"
     id="path29"
     d="m 843.25,104.63 c 0.02,-3.97 -0.1,-7.94 0.1,-11.9 8.84,0.18 17.68,0.03 26.53,0.08 0,13.72 -0.01,27.45 0,41.17 0.1,5.25 0.98,11.31 5.42,14.75 4.51,3.31 10.58,3.11 15.84,2.13 8.25,-1.58 14.88,-7.89 18.5,-15.24 0.24,-8.67 0.07,-17.37 0.08,-26.05 -1.72,-1.65 -3.43,-3.3 -5.13,-4.95 -2.97,0.01 -5.94,0 -8.9,0 -0.01,-3.93 -0.01,-7.87 0,-11.81 8.87,0 17.74,0 26.62,0 0.03,17.22 -0.04,34.44 0.03,51.66 1.7,1.64 3.41,3.28 5.12,4.91 2.96,-0.02 5.94,-0.01 8.92,0 -0.01,3.93 -0.01,7.87 -0.01,11.81 -8.87,0 -17.74,0 -26.61,0 -0.01,-3.59 -0.04,-7.17 0.02,-10.74 -5.32,6.8 -13.13,11.9 -21.82,12.82 -8.01,0.78 -16.68,-0.95 -22.84,-6.4 -5.14,-4.51 -7.61,-11.4 -7.75,-18.12 -0.14,-9.69 -0.03,-19.39 -0.05,-29.08 -1.71,-1.71 -3.44,-3.39 -5.17,-5.05 -2.98,0.01 -5.94,0 -8.9,0.01 z" />
  <path
     style="opacity:1;fill:#000000"
     inkscape:connector-curvature="0"
     id="path31"
     d="m 956.43,104.63 c 0,-3.94 -0.01,-7.88 0.02,-11.82 14.89,0.01 29.78,-0.01 44.67,0.01 0.06,17.09 -0.09,34.19 0.07,51.29 1.29,2.04 3.4,3.44 5.02,5.23 7.82,0.07 15.65,0.01 23.48,0.04 0.01,3.91 -0.06,7.83 0.06,11.75 -24.43,0.15 -48.85,-0.01 -73.27,0.08 -0.09,-3.94 -0.04,-7.89 -0.05,-11.83 8.92,-0.07 17.84,0.1 26.76,-0.07 2.09,-1.19 3.57,-3.31 5.42,-4.88 0.01,-11.62 0.04,-23.23 -0.01,-34.84 -1.74,-1.66 -3.47,-3.32 -5.19,-4.98 -9,0.04 -17.99,0.01 -26.98,0.02 z" />
  <path
     style="opacity:1;fill:#000000"
     inkscape:connector-curvature="0"
     id="path33"
     d="m 1342.5,104.62 c -0.01,-3.93 -0.01,-7.87 0,-11.81 12.48,0 24.96,0 37.44,0 -0.01,3.94 0,7.88 -0.01,11.82 -2.71,-0.01 -5.4,0 -8.09,0 -1.18,1.17 -2.36,2.35 -3.52,3.52 6.89,12.92 13.79,25.83 20.69,38.74 6.85,-12.9 13.68,-25.81 20.53,-38.72 -1.13,-1.18 -2.24,-2.36 -3.33,-3.55 -2.71,0.01 -5.4,0 -8.08,0.01 -0.02,-3.94 -0.02,-7.88 -0.01,-11.82 12.02,0 24.04,0 36.07,0 -0.01,3.94 -0.01,7.87 0,11.81 -2.99,0 -5.97,0.01 -8.93,0 -10.54,19.03 -21.02,38.09 -31.53,57.13 -4.04,7.19 -7.8,14.6 -12.84,21.15 -3.66,4.74 -8.48,8.98 -14.46,10.3 -8.47,1.83 -18.47,-0.9 -23.39,-8.4 -4.85,-7.15 -4.45,-18.6 3.36,-23.54 6.49,-4.62 18.38,-1.31 18.25,7.71 0.56,6.42 -6.04,10.19 -11.73,9.81 2.15,4.11 7.45,5.25 11.62,3.91 3.47,-1.3 5.98,-4.23 8.1,-7.15 3.53,-5.02 6.3,-10.52 9.18,-15.92 -10.15,-18.36 -20.34,-36.68 -30.55,-55 -2.94,0.02 -5.86,0.01 -8.77,0 z" />
  <g
     aria-label="R"
     style="font-style:normal;font-weight:normal;font-size:30px;line-height:1.25;font-family:sans-serif;letter-spacing:0px;word-spacing:0px;fill:#000000;fill-opacity:1;stroke:none;stroke-width:0.75"
     id="text4543">
    <path
       d="m 1427.4045,175.37358 q 0,-0.54 0.018,-0.846 0.018,-0.306 0.018,-0.54 0,-0.828 -0.396,-1.188 -0.396,-0.378 -1.278,-0.378 h -3.096 v 5.202 h -2.7 v -13.122 h 7.038 q 1.008,0 1.728,0.342 0.738,0.342 1.098,0.9 0.378,0.558 0.54,1.134 0.162,0.558 0.162,1.17 0,2.376 -2.214,3.24 0.486,0.198 0.72,0.324 0.234,0.108 0.468,0.378 0.252,0.27 0.324,0.486 0.09,0.216 0.162,0.792 0.09,0.576 0.108,1.134 0.018,0.558 0.036,1.656 0,0.756 0.576,1.08 v 0.486 h -2.898 q -0.252,-0.468 -0.342,-0.9 -0.072,-0.432 -0.072,-1.35 z m 0.432,-6.948 q 0,-1.008 -0.468,-1.332 -0.468,-0.342 -1.44,-0.342 h -3.258 v 3.42 h 3.258 q 0.954,0 1.422,-0.342 0.486,-0.342 0.486,-1.404 z"
       style="font-style:normal;font-variant:normal;font-weight:600;font-stretch:normal;font-size:18px;font-family:FreeSans;-inkscape-font-specification:'FreeSans Semi-Bold';stroke-width:0.75"
       id="path4547" />
  </g>
  <circle
     style="opacity:1;fill:none;fill-opacity:1;fill-rule:evenodd;stroke:#000000;stroke-width:3;stroke-linejoin:round;stroke-miterlimit:4;stroke-dasharray:none;stroke-opacity:1;paint-order:markers stroke fill"
     id="path4545"
     cx="1424.9391"
     cy="171.06258"
     r="10.906532" />
</svg>
